<?xml version="1.0" standalone="no"?>
<!DOCTYPE svg PUBLIC "-//W3C//DTD SVG 20010904//EN"
 "http://www.w3.org/TR/2001/REC-SVG-20010904/DTD/svg10.dtd">
<svg version="1.0" xmlns="http://www.w3.org/2000/svg"
 width="402.000000pt" height="402.000000pt" viewBox="0 0 402.000000 402.000000"
 preserveAspectRatio="xMidYMid meet">
<metadata>
Created by potrace 1.14, written by Peter Selinger 2001-2017
</metadata>
<g transform="translate(0.000000,402.000000) scale(0.100000,-0.100000)"
fill="#000000" stroke="none">
<path d="M1002 3575 c36 -19 69 -39 73 -44 3 -6 12 -8 19 -5 13 5 76 -21 76
-31 0 -2 -4 -15 -9 -28 -9 -23 -8 -25 40 -30 64 -8 134 -39 149 -67 18 -34
-13 -69 -97 -110 -45 -22 -74 -43 -77 -55 -12 -42 -6 -161 9 -181 8 -10 15
-29 15 -41 0 -17 14 -28 63 -51 34 -16 71 -32 83 -36 33 -10 79 -67 102 -126
30 -76 45 -156 37 -188 -4 -15 -10 -98 -14 -184 -6 -142 -8 -159 -29 -187 -13
-18 -21 -35 -18 -40 9 -14 -25 -51 -47 -51 -21 0 -22 -5 -24 -90 l-2 -90 177
1 c97 0 276 4 397 9 185 7 235 12 316 33 178 46 312 135 363 240 49 100 45
278 -10 393 -35 74 -94 137 -185 196 -43 28 -79 55 -79 59 0 4 20 19 43 33
108 63 158 199 123 336 -35 137 -109 229 -248 308 -107 61 -114 62 -743 62
l-570 -1 67 -34z m956 -256 c106 -36 162 -123 147 -233 -17 -135 -112 -192
-304 -184 -53 2 -102 7 -108 11 -10 6 -13 60 -13 211 0 111 3 206 7 209 3 4
52 7 108 7 76 0 116 -5 163 -21z m-17 -709 c101 -31 151 -89 164 -186 15 -109
-42 -197 -145 -228 -53 -16 -231 -23 -264 -10 -14 5 -16 34 -16 218 0 117 3
216 7 219 15 16 192 7 254 -13z"/>
<path d="M761 3549 c-49 -41 -63 -60 -72 -94 -10 -38 -15 -44 -52 -55 -101
-30 -141 -65 -135 -117 4 -36 41 -60 124 -80 l70 -18 17 -76 c10 -43 26 -84
36 -93 17 -16 17 -20 3 -64 -27 -83 -16 -75 -133 -107 l-55 -15 -57 -113 c-31
-62 -57 -117 -57 -121 0 -5 -15 -32 -34 -60 -51 -78 -71 -140 -59 -179 6 -21
6 -42 1 -58 -10 -24 -3 -222 7 -240 10 -15 53 -10 93 10 20 10 56 22 80 26 35
6 42 4 42 -9 0 -9 -3 -16 -7 -16 -17 0 -44 -76 -38 -103 l7 -27 353 0 352 0 6
63 c3 34 1 66 -4 72 -5 5 -9 17 -9 27 0 13 8 18 28 18 32 0 52 16 52 42 0 11
10 32 22 48 19 27 22 48 29 192 4 90 10 170 14 179 9 25 -12 130 -39 192 -31
68 -72 104 -169 146 -42 19 -78 39 -79 45 0 6 -2 16 -2 22 -1 6 -8 21 -16 35
-9 13 -24 41 -35 62 -19 36 -19 38 -2 65 10 15 24 39 30 55 6 15 16 27 22 27
5 0 38 13 72 29 134 64 114 131 -51 166 -33 7 -60 16 -59 21 1 5 4 17 8 26 5
12 -2 21 -25 33 -18 9 -38 14 -46 11 -7 -3 -16 -1 -19 5 -6 8 -138 79 -149 79
-2 0 -32 -23 -65 -51z"/>
<path d="M2140 1805 l0 -105 43 0 c58 -1 122 -32 147 -72 19 -31 20 -50 20
-329 0 -163 3 -418 7 -567 l6 -272 316 1 c463 0 589 14 731 76 77 34 155 96
185 147 36 61 50 157 36 246 -20 128 -79 215 -196 289 -36 23 -65 46 -65 51 0
5 13 16 29 24 43 23 97 91 111 142 18 64 8 159 -25 233 -35 76 -115 153 -212
202 l-67 34 -533 3 -533 3 0 -106z m888 -140 c97 -29 142 -89 142 -187 0 -74
-31 -125 -95 -157 -43 -23 -62 -26 -145 -26 -52 1 -103 4 -112 8 -16 6 -18 24
-18 185 0 98 3 182 7 185 12 13 170 7 221 -8z m-4 -619 c103 -31 153 -104 144
-211 -8 -94 -63 -146 -177 -165 -43 -7 -90 -8 -127 -3 l-59 8 -3 180 c-1 99 0
185 2 192 7 18 159 17 220 -1z"/>
</g>
</svg>
