<?xml version="1.0" standalone="no"?>
<!DOCTYPE svg PUBLIC "-//W3C//DTD SVG 20010904//EN"
 "http://www.w3.org/TR/2001/REC-SVG-20010904/DTD/svg10.dtd">
<svg version="1.0" xmlns="http://www.w3.org/2000/svg"
 width="600.000000pt" height="600.000000pt" viewBox="0 0 600.000000 600.000000"
 preserveAspectRatio="xMidYMid meet">
<metadata>
Created by potrace 1.14, written by Peter Selinger 2001-2017
</metadata>
<g transform="translate(0.000000,600.000000) scale(0.100000,-0.100000)"
fill="#000000" stroke="none">
<path d="M3364 5787 c-2 -7 -3 -80 -2 -162 l3 -149 82 -12 c140 -20 218 -75
243 -173 9 -34 14 -282 17 -921 2 -481 6 -881 8 -887 6 -16 1044 -18 1209 -3
331 32 578 129 722 283 100 109 137 249 115 436 -28 229 -117 365 -331 501
-43 28 -81 57 -84 65 -4 10 17 31 63 65 113 82 161 172 169 315 5 107 -10 176
-63 287 -72 152 -298 326 -465 358 -33 6 -362 10 -867 10 -656 0 -815 -3 -819
-13z m1422 -377 c87 -24 147 -62 183 -117 41 -62 54 -112 49 -198 -9 -190
-138 -285 -383 -284 -118 0 -185 12 -202 35 -10 14 -13 78 -13 283 0 146 4
272 9 279 21 34 239 35 357 2z m3 -999 c161 -51 239 -163 229 -330 -9 -148
-82 -229 -245 -267 -123 -30 -332 -16 -347 22 -9 23 -7 567 2 580 12 20 43 23
172 19 90 -2 143 -9 189 -24z"/>
<path d="M1289 5684 c-276 -49 -539 -227 -644 -434 -34 -66 -57 -154 -49 -184
4 -18 1 -33 -9 -44 -29 -33 -106 -188 -136 -274 -33 -97 -57 -214 -65 -328 -3
-41 -6 -369 -6 -727 l0 -653 -29 0 c-33 0 -58 -21 -66 -53 -5 -22 -45 -272
-45 -282 0 -3 16 -23 35 -44 l36 -40 -36 -71 c-77 -153 -142 -403 -164 -634
-13 -127 -13 -423 -2 -546 8 -81 8 -85 -15 -103 -28 -22 -29 -41 -8 -155 16
-84 15 -87 -8 -161 -17 -57 -23 -100 -23 -171 0 -87 3 -100 29 -148 36 -65 92
-101 168 -109 47 -5 56 -10 83 -46 17 -22 47 -49 68 -60 46 -24 128 -24 186
-1 48 19 107 83 116 125 4 19 18 35 38 45 77 39 110 92 109 175 -1 59 -21 120
-50 153 -16 18 -16 19 13 12 17 -3 57 -11 89 -17 47 -9 69 -20 104 -53 60 -55
97 -111 121 -183 34 -101 36 -136 12 -192 -17 -40 -21 -70 -21 -149 0 -147
-27 -137 362 -137 l320 0 19 24 c25 30 27 168 3 236 -13 39 -13 60 -3 145 l12
100 37 0 c45 0 46 -3 55 -107 6 -66 4 -85 -11 -114 -12 -23 -19 -65 -22 -134
-4 -89 -2 -103 16 -125 l20 -25 314 -3 c307 -3 315 -2 341 18 26 21 27 25 27
118 0 66 -5 112 -17 144 -16 45 -16 50 5 133 29 113 59 169 126 235 52 50 62
56 134 71 42 9 78 16 80 14 1 -1 -10 -24 -25 -50 -22 -39 -27 -62 -27 -116 -1
-78 12 -102 88 -160 27 -20 56 -54 66 -75 67 -147 285 -171 369 -41 19 29 31
37 55 37 89 0 171 57 203 138 26 68 23 186 -7 286 -22 73 -23 83 -11 150 26
144 26 151 -2 173 l-26 20 11 134 c11 146 5 437 -12 564 -29 213 -92 446 -158
582 l-30 62 25 23 c41 38 42 54 16 208 -26 155 -38 180 -85 180 l-28 0 0 714
c0 773 -1 794 -56 968 -27 84 -90 219 -126 271 -17 24 -18 32 -8 58 24 57 -13
171 -94 283 -79 109 -177 190 -309 254 -202 98 -403 133 -570 97 -82 -17 -164
-53 -217 -95 -32 -25 -47 -30 -95 -30 -50 0 -61 4 -97 34 -105 90 -303 126
-499 90z m126 -123 c-6 -5 -54 -21 -108 -35 -160 -42 -277 -94 -387 -171 -74
-51 -78 -49 -16 9 60 57 189 130 282 160 107 35 251 58 229 37z m1047 -5 c168
-32 335 -114 437 -214 95 -94 90 -108 -12 -31 -118 89 -233 148 -388 200 -182
60 -194 75 -37 45z m-143 -137 c85 -14 156 -55 247 -141 82 -78 117 -88 153
-42 l21 26 37 -28 c191 -142 327 -325 399 -537 53 -154 54 -179 54 -1008 l0
-768 -171 -149 -171 -150 -132 -21 c-304 -48 -386 -53 -886 -53 -500 0 -582 5
-888 54 l-133 21 -167 146 -167 147 -3 709 c-3 764 2 876 44 1022 67 236 227
459 422 592 l59 40 14 -32 c11 -25 21 -33 47 -35 28 -3 42 5 104 62 85 79 172
134 230 145 66 13 810 13 887 0z m-1740 -2742 c93 -87 209 -190 258 -229 48
-39 111 -91 140 -115 l51 -43 -25 -46 c-14 -25 -29 -44 -33 -42 -4 2 -102 88
-216 193 -115 104 -214 194 -220 200 -6 5 -44 41 -84 80 -68 66 -72 71 -66
105 3 19 6 41 6 48 0 8 4 12 10 10 5 -1 86 -74 179 -161z m2775 117 c4 -31 2
-52 -6 -62 -40 -48 -580 -532 -588 -527 -6 4 -20 24 -31 47 -18 35 -18 41 -6
51 146 115 295 243 436 374 96 90 177 163 181 163 4 0 10 -21 14 -46z m-2095
-343 c41 -41 69 -107 58 -135 -9 -23 -56 -38 -93 -32 -35 7 -114 70 -114 92 0
23 38 92 57 103 32 18 52 12 92 -28z m1247 10 c41 -25 77 -84 78 -129 1 -46
-32 -68 -88 -58 -41 8 -116 69 -116 95 0 20 37 81 59 98 22 17 31 16 67 -6z
m-2099 -1113 l20 -68 -88 0 -88 0 -8 38 c-4 20 -8 163 -8 317 0 226 4 301 18
390 23 135 57 267 94 365 l28 75 6 -525 c5 -491 7 -529 26 -592z m2265 1090
c-19 -19 -24 -21 -32 -8 -10 17 4 30 35 30 19 0 18 -1 -3 -22z m737 -91 c33
-103 63 -238 82 -372 15 -102 19 -520 6 -627 l-9 -68 -85 0 c-77 0 -84 2 -78
18 31 82 35 142 35 645 0 324 3 506 10 502 5 -3 23 -47 39 -98z m-179 -265 l0
-359 -97 -22 c-54 -12 -108 -24 -120 -27 l-23 -6 0 168 c0 93 5 221 10 284 l9
115 108 102 c59 56 109 102 111 103 1 0 2 -161 2 -358z m-2597 242 l96 -91 10
-144 c12 -159 15 -419 5 -419 -4 0 -58 12 -120 27 l-114 27 0 353 c0 297 2
353 14 346 7 -4 57 -49 109 -99z m1671 81 c-3 -7 -18 -15 -33 -18 -38 -8 -88
-51 -111 -98 -19 -37 -21 -37 -55 -28 -49 14 -95 -3 -138 -50 -19 -21 -41 -55
-48 -74 l-13 -36 -28 50 c-53 91 -141 135 -215 104 -37 -16 -38 -15 -53 7 -53
79 -117 122 -177 116 -29 -2 -37 1 -44 19 l-8 21 464 0 c366 -1 462 -3 459
-13z m-1066 -205 c24 0 31 -5 35 -28 3 -15 24 -48 46 -73 51 -58 125 -92 191
-87 45 3 51 0 98 -44 28 -26 67 -52 91 -59 29 -9 41 -17 39 -28 -3 -13 -17
-15 -91 -12 -212 8 -343 -78 -399 -263 l-21 -69 23 -17 c75 -57 239 -74 316
-33 60 32 127 112 154 183 l23 61 26 -24 c93 -88 241 -76 309 23 21 31 23 44
19 101 l-4 67 54 4 c67 6 103 31 122 86 l15 41 45 -6 c97 -10 171 45 171 128
0 36 2 39 29 39 16 0 40 4 53 9 22 8 27 3 67 -70 64 -119 86 -128 168 -62 23
18 43 33 45 33 2 0 3 -127 3 -282 0 -310 6 -360 56 -464 30 -60 92 -135 138
-167 l25 -17 -23 -24 c-32 -34 -127 -83 -196 -101 -89 -23 -1891 -23 -1980 0
-72 19 -147 56 -194 95 l-34 29 60 55 c71 66 118 148 141 248 13 59 17 127 17
351 0 152 2 277 4 277 2 0 23 -18 47 -40 72 -66 100 -52 172 87 l42 82 35 -15
c19 -8 47 -14 63 -14z m546 -61 c19 -21 40 -57 47 -80 12 -39 12 -43 -10 -60
-44 -35 -131 -14 -173 42 -17 23 -17 27 -2 72 17 50 52 78 85 70 11 -3 34 -22
53 -44z m376 -24 c39 -56 45 -90 20 -115 -39 -39 -129 -16 -177 46 l-22 30 20
42 c12 24 33 49 48 57 23 12 30 11 55 -3 15 -9 41 -35 56 -57z m-225 -115 c3
-5 1 -10 -4 -10 -6 0 -11 5 -11 10 0 6 2 10 4 10 3 0 8 -4 11 -10z m-269 -237
c-13 -53 -67 -152 -97 -177 -44 -37 -102 -50 -167 -37 -86 17 -86 18 -53 88
48 100 135 152 260 153 l63 0 -6 -27z m-1022 -204 l95 -23 -6 -30 c-9 -55 -62
-153 -103 -190 -22 -20 -44 -36 -49 -36 -26 0 -71 169 -71 269 0 39 2 43 20
38 11 -3 63 -15 114 -28z m2584 -66 c-6 -103 -40 -213 -66 -213 -7 0 -32 18
-55 40 -46 42 -90 121 -101 181 l-6 36 102 25 c57 14 109 26 117 27 11 1 13
-17 9 -96z m-2804 -365 c3 -13 7 -47 10 -77 3 -30 12 -62 21 -71 9 -10 65 -43
126 -74 113 -59 132 -77 143 -134 4 -24 1 -37 -14 -52 -27 -27 -43 -25 -82 9
-45 39 -83 44 -112 15 -29 -29 -20 -68 27 -111 42 -39 43 -42 30 -67 -15 -29
-64 -46 -103 -36 -16 4 -33 21 -47 48 -35 70 -39 72 -112 72 -43 0 -74 5 -88
15 -50 35 -55 149 -10 280 17 50 22 80 16 105 -3 19 -9 50 -13 68 l-5 32 104
0 c100 0 105 -1 109 -22z m3090 -45 c-14 -64 -13 -70 10 -142 14 -42 28 -93
32 -114 10 -57 -4 -126 -31 -153 -21 -21 -34 -24 -94 -24 -63 0 -71 -2 -90
-26 -12 -15 -21 -32 -21 -39 0 -6 -11 -22 -25 -35 -39 -37 -111 -26 -135 21
-10 18 -5 26 34 60 52 46 60 83 26 114 -29 26 -64 22 -108 -14 -46 -36 -62
-38 -87 -11 -20 22 -16 67 10 106 8 12 64 48 124 80 61 31 117 64 126 74 9 10
17 46 21 93 l7 77 107 0 108 0 -14 -67z m-2928 -30 c-7 -7 -26 7 -26 19 0 6 6
6 15 -2 9 -7 13 -15 11 -17z m2004 -159 c0 -3 -11 -20 -24 -37 -36 -49 -57
-95 -82 -177 -18 -63 -24 -74 -40 -70 -11 3 -103 5 -205 5 l-186 0 -10 88
c-15 125 -17 127 -168 127 -150 0 -159 -6 -170 -115 -11 -112 -12 -115 -45
-103 -17 5 -103 8 -203 6 l-174 -3 -26 82 c-14 45 -42 107 -61 138 -20 30 -36
58 -36 60 0 3 322 5 715 5 393 0 715 -3 715 -6z m-928 -429 c34 -26 48 -56 48
-105 l0 -40 -230 0 -230 0 0 46 c0 56 12 79 53 105 29 18 47 19 182 17 132 -3
153 -5 177 -23z m758 10 c43 -22 60 -53 60 -107 l0 -48 -227 2 -228 3 -3 31
c-5 48 20 98 59 117 47 23 296 24 339 2z"/>
<path d="M1185 4899 c-81 -12 -145 -34 -240 -82 -112 -57 -244 -190 -302 -303
-98 -189 -115 -391 -49 -588 50 -148 158 -289 289 -378 292 -198 687 -159 939
93 l68 68 17 -25 c31 -48 157 -145 238 -184 331 -160 711 -66 931 230 124 167
171 423 115 624 -66 237 -243 428 -477 512 -258 94 -567 21 -769 -183 l-60
-60 -60 61 c-116 116 -268 193 -429 215 -87 12 -125 12 -211 0z m303 -155 c41
-13 95 -37 120 -51 60 -35 156 -126 194 -182 39 -58 55 -71 90 -71 22 0 35 11
67 58 46 68 139 157 203 195 25 14 81 38 124 53 100 34 253 39 349 10 168 -50
310 -167 384 -317 120 -243 76 -515 -114 -704 -77 -77 -144 -120 -245 -156
-95 -33 -266 -34 -368 0 -133 44 -261 140 -333 252 -50 79 -98 79 -149 -1 -17
-27 -62 -78 -100 -114 -290 -274 -767 -193 -952 160 -70 133 -89 254 -64 394
46 259 258 463 521 504 65 10 198 -5 273 -30z"/>
<path d="M1201 4719 c-183 -32 -350 -165 -421 -335 -114 -275 -4 -579 259
-718 160 -84 339 -86 508 -5 49 23 89 53 143 108 87 88 122 148 150 257 24 91
25 164 5 257 -42 199 -205 372 -400 423 -69 19 -180 25 -244 13z m170 -129
c220 -42 374 -241 356 -460 -18 -212 -185 -379 -398 -397 -271 -23 -505 229
-459 494 16 96 50 164 116 234 105 110 243 156 385 129z"/>
<path d="M1324 4407 c-153 -58 -215 -225 -137 -369 47 -86 121 -128 225 -128
100 1 182 51 228 140 85 165 -44 371 -230 369 -30 0 -69 -6 -86 -12z m154
-137 c70 -43 78 -136 17 -197 -29 -29 -40 -33 -84 -33 -44 0 -56 5 -87 33
-114 104 22 277 154 197z"/>
<path d="M2385 4724 c-175 -27 -339 -142 -418 -291 -51 -98 -67 -162 -67 -269
0 -254 149 -455 400 -540 81 -27 233 -26 325 3 282 89 448 382 380 672 -30
127 -132 269 -245 341 -98 63 -266 100 -375 84z m157 -135 c84 -18 158 -58
219 -119 96 -96 136 -203 126 -341 -17 -247 -251 -433 -493 -392 -126 22 -247
103 -308 208 -67 114 -75 278 -19 397 87 185 283 287 475 247z"/>
<path d="M2249 4406 c-96 -34 -169 -138 -169 -241 0 -174 166 -294 341 -245
49 14 123 80 149 136 27 54 30 151 7 205 -51 123 -202 190 -328 145z m162
-139 c68 -45 72 -148 8 -201 -24 -20 -41 -26 -80 -26 -42 0 -55 5 -87 34 -34
32 -37 38 -37 91 0 53 3 59 37 91 47 43 106 47 159 11z"/>
<path d="M1268 3076 c-33 -17 -45 -59 -25 -89 41 -63 455 -127 728 -113 265
14 477 68 492 128 8 28 -12 69 -39 78 -13 5 -44 0 -85 -15 -128 -44 -239 -59
-454 -59 -215 0 -335 14 -502 57 -74 19 -97 22 -115 13z"/>
<path d="M2110 1833 c0 -42 10 -49 70 -57 100 -13 194 -66 254 -143 29 -37 33
-49 25 -65 -12 -22 -67 -48 -101 -48 -44 0 -143 56 -204 117 l-61 60 -32 -26
-33 -27 74 -69 c147 -140 289 -172 389 -88 34 29 59 72 59 103 0 30 -50 99
-110 153 -80 72 -189 116 -287 117 -40 0 -43 -2 -43 -27z"/>
<path d="M3610 3213 c-8 -3 -18 -11 -22 -17 -12 -17 -9 -275 2 -297 8 -14 21
-19 48 -19 57 0 153 -28 195 -57 48 -33 75 -78 87 -144 5 -30 10 -433 12 -916
2 -629 6 -865 14 -873 9 -9 173 -11 620 -8 l609 5 140 27 c167 32 264 64 367
118 144 77 244 178 284 288 9 27 18 91 21 160 13 289 -77 463 -324 629 -51 34
-93 67 -93 75 0 7 25 30 55 51 103 70 156 154 175 271 19 120 -6 246 -76 370
-58 106 -239 254 -371 304 -94 36 -205 40 -978 39 -412 0 -757 -3 -765 -6z
m1302 -373 c220 -25 332 -128 332 -305 1 -87 -15 -142 -57 -197 -66 -86 -195
-125 -380 -115 -137 8 -153 17 -162 90 -11 88 0 495 14 511 12 14 46 20 131
24 19 1 74 -3 122 -8z m32 -1001 c142 -26 219 -76 268 -177 29 -58 33 -76 33
-147 0 -69 -4 -88 -30 -140 -34 -68 -92 -114 -178 -141 -69 -22 -264 -30 -333
-15 l-54 12 -1 42 c-4 127 -1 558 3 562 9 10 122 20 178 18 30 -2 82 -8 114
-14z"/>
<path d="M3956 739 c-80 -20 -120 -71 -114 -145 l3 -39 63 -3 64 -3 -16 23
c-25 36 -21 104 9 133 30 31 56 32 91 2 23 -20 28 -34 32 -84 7 -95 -18 -165
-81 -227 -29 -29 -78 -68 -110 -87 -49 -28 -57 -38 -55 -59 l3 -25 186 -3 187
-2 6 22 c3 13 6 36 6 51 0 26 -3 28 -27 23 -31 -6 -261 -36 -278 -36 -5 0 27
21 72 47 144 80 216 170 217 270 1 60 -21 97 -75 124 -42 23 -131 31 -183 18z"/>
<path d="M4463 733 c-93 -32 -149 -140 -141 -274 8 -135 70 -218 178 -240 144
-30 255 71 268 239 14 205 -132 337 -305 275z m153 -61 c20 -42 31 -213 19
-307 -9 -73 -40 -119 -84 -123 -73 -7 -102 62 -102 247 1 153 15 205 64 226
44 18 81 2 103 -43z"/>
<path d="M4985 741 c-80 -21 -119 -64 -120 -134 l0 -52 63 -3 63 -3 -15 30
c-43 82 14 173 88 140 37 -17 49 -58 44 -143 -7 -115 -60 -189 -192 -267 -48
-28 -56 -38 -54 -59 l3 -25 184 -3 c203 -3 201 -4 201 60 0 35 -2 37 -27 33
-58 -10 -276 -36 -278 -33 -2 2 31 21 73 43 81 43 169 120 196 174 10 18 20
56 23 85 4 42 1 57 -19 86 -13 19 -40 43 -60 53 -43 21 -128 30 -173 18z"/>
<path d="M5364 718 c3 -13 6 -33 6 -45 0 -22 3 -23 143 -25 l142 -3 -85 -69
c-47 -37 -86 -72 -88 -76 -2 -5 12 -12 30 -15 65 -12 98 -57 98 -133 0 -98
-50 -143 -119 -108 -33 18 -44 41 -43 98 1 21 -1 38 -3 38 -16 0 -105 -64
-105 -75 0 -19 53 -61 97 -76 21 -8 70 -13 108 -13 117 1 195 56 195 137 0 74
-66 138 -158 153 -23 4 -42 9 -42 13 1 3 36 33 80 66 l79 60 1 48 0 47 -171 0
-171 0 6 -22z"/>
</g>
</svg>
